<svg width="228" height="59" viewBox="0 0 228 59" fill="none" xmlns="http://www.w3.org/2000/svg">
<rect width="228" height="59" fill="black" fill-opacity="0"/>
<rect width="29" height="29" fill="black" fill-opacity="0" transform="translate(0 0.734863)"/>
<mask id="mask0" mask-type="alpha" maskUnits="userSpaceOnUse" x="0" y="1" width="29" height="29">
<path fill-rule="evenodd" clip-rule="evenodd" d="M0 1.16504H28.1216V29.125H0V1.16504Z" fill="white"/>
</mask>
<g mask="url(#mask0)">
<path fill-rule="evenodd" clip-rule="evenodd" d="M19.6636 7.89804C18.8016 7.73704 17.8846 7.63004 16.3226 7.63004C11.3136 7.63004 9.3186 11.508 9.3186 15.387C9.3186 19.158 11.0976 22.498 16.3766 22.498C20.8476 22.498 22.5176 21.851 25.4806 20.774C27.6366 21.583 28.1216 23.684 28.1216 25.676C24.5116 27.939 19.6636 29.125 15.1386 29.125C7.8106 29.125 -0.000396729 26.162 -0.000396729 15.387C-0.000396729 6.49804 7.1106 1.16504 16.6466 1.16504C20.0396 1.16504 23.6496 2.08104 26.9346 3.37404V12.101C26.9346 12.856 25.8586 13.448 24.1346 13.448C22.6266 13.448 20.5256 13.018 20.3096 11.723L19.6636 7.89804Z" fill="#231F20"/>
</g>
<path fill-rule="evenodd" clip-rule="evenodd" d="M49.938 15.1729C49.938 11.2939 47.945 7.63086 44.228 7.63086C40.51 7.63086 38.518 11.2939 38.518 15.1729C38.518 19.0519 40.51 22.6599 44.228 22.6599C47.945 22.6599 49.938 19.0519 49.938 15.1729ZM44.228 1.16504C52.685 1.16504 59.258 5.96104 59.258 15.173C59.258 24.385 52.685 29.125 44.228 29.125C35.77 29.125 29.197 24.385 29.197 15.173C29.197 5.96104 35.77 1.16504 44.228 1.16504Z" fill="#231F20"/>
<path fill-rule="evenodd" clip-rule="evenodd" d="M64.6431 8.38488L60.4951 7.73788C59.4181 7.57688 58.7181 6.12288 58.7181 4.50588C58.7181 2.99788 59.1471 1.65088 60.1181 1.65088H70.0301C73.2091 1.65088 73.8011 3.15888 73.8011 6.28288V17.7579C73.8011 19.9669 74.5011 22.1219 77.6801 22.1219C79.7811 22.1219 83.0131 21.2059 83.0131 16.7359V8.22288L79.5661 7.63088C78.4881 7.46888 78.0041 5.90588 78.0041 4.45188C78.0041 2.99788 78.3801 1.65088 79.2961 1.65088H95.4031C96.3731 1.65088 96.7491 2.94388 96.7491 4.34388C96.7491 5.85288 96.2661 7.41488 95.1871 7.63088L92.1711 8.22288V21.9059L96.3201 22.5519C97.3981 22.7139 98.0981 24.1689 98.0981 25.7849C98.0981 27.2929 97.6651 28.6399 96.6951 28.6399H87.3231C84.6841 28.6399 83.2831 27.8309 83.2831 25.2469C81.1821 27.8309 77.6801 29.1249 74.5551 29.1249C69.8681 29.1249 64.6431 27.8309 64.6431 18.9439V8.38488Z" fill="#231F20"/>
<path fill-rule="evenodd" clip-rule="evenodd" d="M104.561 22.0685V8.38453L100.412 7.73753C99.3335 7.57753 98.6335 6.12353 98.6335 4.50653C98.6335 2.99853 99.0655 1.65053 100.033 1.65053H109.408C112.048 1.65053 113.449 2.67353 113.449 5.26053C115.711 2.67353 118.514 1.16553 122.285 1.16553C124.223 1.16553 124.655 1.21953 126.377 1.59653C126.756 2.40453 126.918 3.37453 126.918 4.39853C126.918 6.33653 126.218 8.54653 125.085 9.46153L120.29 8.38453C116.574 8.38453 113.719 8.81553 113.719 13.7725V22.0685L117.165 22.6605C118.244 22.8225 118.727 24.3845 118.727 25.8395C118.727 27.2935 118.352 28.6395 117.436 28.6395H101.328C100.357 28.6395 99.9825 27.3475 99.9825 25.9475C99.9825 24.4385 100.465 22.8765 101.544 22.6605L104.561 22.0685Z" fill="#231F20"/>
<path fill-rule="evenodd" clip-rule="evenodd" d="M127.456 19.9666C127.456 19.2116 128.423 18.6186 130.148 18.6186C131.656 18.6186 133.597 19.1056 133.918 20.3436L134.619 23.0366C136.127 23.5226 137.852 23.8996 139.898 23.8996C143.185 23.8996 143.993 23.2516 143.993 22.4446C143.993 21.3146 143.131 20.6136 137.314 18.4046C130.418 15.8186 127.886 13.3396 127.886 9.29955C127.886 3.85855 133.489 1.16455 141.301 1.16455C145.61 1.16455 149.381 1.81155 152.775 2.94355V10.0546C152.775 10.8086 151.697 11.4016 149.973 11.4016C148.464 11.4016 146.634 10.9166 146.31 9.67655L145.61 6.92955C144.694 6.65955 143.347 6.39055 141.893 6.39055C138.606 6.39055 137.69 7.63055 137.69 8.43755C137.69 9.89355 138.768 10.2696 143.239 11.8316C151.481 14.7406 153.797 17.3266 153.797 21.2056C153.797 27.1306 147.765 29.1245 140.223 29.1245C134.457 29.1245 130.202 28.2086 127.456 26.9706V19.9666Z" fill="#231F20"/>
<path fill-rule="evenodd" clip-rule="evenodd" d="M194.478 22.0685V8.38453L190.329 7.73753C189.25 7.57753 188.55 6.12353 188.55 4.50653C188.55 2.99853 188.982 1.65053 189.95 1.65053H199.324C201.965 1.65053 203.365 2.40453 203.365 4.99053C205.466 2.40453 208.969 1.16553 212.091 1.16553C216.778 1.16553 222.006 2.45953 222.006 11.3475V21.9065L226.152 22.5515C227.231 22.7145 227.931 24.1695 227.931 25.7855C227.931 27.2935 227.499 28.6395 226.531 28.6395H216.619C213.44 28.6395 212.845 27.1305 212.845 24.0055V12.5315C212.845 10.3235 212.145 8.16953 208.969 8.16953C206.866 8.16953 203.636 9.03153 203.636 13.5025V22.0685L207.082 22.6605C208.161 22.8225 208.645 24.3845 208.645 25.8395C208.645 27.2935 208.267 28.6395 207.353 28.6395H191.245C190.274 28.6395 189.899 27.3475 189.899 25.9475C189.899 24.4385 190.383 22.8765 191.461 22.6605L194.478 22.0685Z" fill="#231F20"/>
<mask id="mask1" mask-type="alpha" maskUnits="userSpaceOnUse" x="0" y="0" width="228" height="59">
<path fill-rule="evenodd" clip-rule="evenodd" d="M0 58.735H227.931V0H0V58.735Z" fill="white"/>
</mask>
<g mask="url(#mask1)">
<path fill-rule="evenodd" clip-rule="evenodd" d="M0 58.7351H227.931V36.9321H0V58.7351Z" fill="#76BC21"/>
<path fill-rule="evenodd" clip-rule="evenodd" d="M11.3662 51.2683H15.9332V53.8063H8.4482V42.8633H11.3662V51.2683Z" fill="white"/>
<path fill-rule="evenodd" clip-rule="evenodd" d="M25.7856 45.0518H25.7566L24.4286 49.8088H27.1276L25.7856 45.0518ZM23.8016 51.9248L23.2616 53.8068H20.2256L23.5096 42.8638H27.9456L31.2726 53.8068H28.2956L27.7266 51.9248H23.8016Z" fill="white"/>
<path fill-rule="evenodd" clip-rule="evenodd" d="M41.0659 42.8633L44.3059 51.2833L44.3199 51.2683L44.1449 42.8633H47.0639V53.8063H42.0869L38.8919 45.3733L38.8779 45.4023L39.0519 53.8063H36.1339V42.8633H41.0659Z" fill="white"/>
<path fill-rule="evenodd" clip-rule="evenodd" d="M59.5859 46.2482C59.5859 45.3292 58.5789 45.1542 57.7039 45.1542C55.6029 45.1542 55.5149 45.8112 55.5149 47.5762V49.3562C55.5149 51.2972 56.1859 51.5602 57.7039 51.5602C59.1919 51.5602 59.5859 51.2252 59.5859 49.7072H57.5719V47.6792H62.5479V49.5912C62.5479 53.2822 61.6139 53.9532 57.7039 53.9532C54.2599 53.9532 52.5089 53.3102 52.5089 49.7662V46.9342C52.5089 43.3152 54.4939 42.7622 57.7039 42.7622C60.5349 42.7622 62.5479 43.2712 62.5479 46.2482H59.5859Z" fill="white"/>
<path fill-rule="evenodd" clip-rule="evenodd" d="M70.9707 42.8633V49.9683C70.9707 51.1803 71.5257 51.4143 72.7657 51.4143C74.0057 51.4143 74.5607 51.1803 74.5607 49.9683V42.8633H77.4787V50.1593C77.4787 52.8293 76.6467 53.9533 72.7657 53.9533C68.6797 53.9533 68.0527 52.7853 68.0527 50.1593V42.8633H70.9707Z" fill="white"/>
<path fill-rule="evenodd" clip-rule="evenodd" d="M87.958 45.0518H87.929L86.601 49.8088H89.3L87.958 45.0518ZM85.974 51.9248L85.434 53.8068H82.399L85.682 42.8638H90.118L93.444 53.8068H90.468L89.899 51.9248H85.974Z" fill="white"/>
<path fill-rule="evenodd" clip-rule="evenodd" d="M105.15 46.2482C105.15 45.3292 104.143 45.1542 103.268 45.1542C101.166 45.1542 101.079 45.8112 101.079 47.5762V49.3562C101.079 51.2972 101.75 51.5602 103.268 51.5602C104.756 51.5602 105.15 51.2252 105.15 49.7072H103.136V47.6792H108.112V49.5912C108.112 53.2822 107.178 53.9532 103.268 53.9532C99.8244 53.9532 98.0734 53.3102 98.0734 49.7662V46.9342C98.0734 43.3152 100.057 42.7622 103.268 42.7622C106.098 42.7622 108.112 43.2712 108.112 46.2482H105.15Z" fill="white"/>
<path fill-rule="evenodd" clip-rule="evenodd" d="M116.535 47.2558H121.204V49.2828H116.535V51.4138H121.613V53.8068H113.617V42.8628H121.511V45.2558H116.535V47.2558Z" fill="white"/>
<path fill-rule="evenodd" clip-rule="evenodd" d="M142.557 46.2917C142.557 45.1827 142.06 45.1537 140.923 45.1537C139.347 45.1537 139.2 45.4887 139.2 46.1027C139.2 46.8757 139.536 46.9487 140.776 47.1967L143.578 47.7507C145.022 48.0277 145.664 48.8457 145.664 50.3047C145.664 53.3397 145.037 53.9527 140.923 53.9527C137.843 53.9527 136.282 53.5877 136.282 50.3047H139.083C139.083 51.4427 139.492 51.5597 140.923 51.5597C142.293 51.5597 142.746 51.4137 142.746 50.4937C142.746 50.0417 142.629 49.6047 141.418 49.4297L138.631 49.0207C137.435 48.8457 136.282 48.2327 136.282 46.1027C136.282 43.1107 138.062 42.7617 140.923 42.7617C143.783 42.7617 145.358 43.1977 145.358 45.8397V46.2917H142.557Z" fill="white"/>
<path fill-rule="evenodd" clip-rule="evenodd" d="M157.5 46.7892V46.3652C157.5 45.4892 156.698 45.3002 155.706 45.3002C154.042 45.3002 153.881 45.8252 153.881 47.3872V49.0942C153.881 50.7272 153.955 51.4142 155.706 51.4142C156.917 51.4142 157.5 51.3262 157.5 50.0422V49.7222H160.507V50.0422C160.507 53.1212 159.441 53.9532 156.026 53.9532C153.05 53.9532 150.876 53.7492 150.876 49.7512V46.9202C150.876 43.3012 152.816 42.7622 156.026 42.7622C158.931 42.7622 160.507 43.5632 160.507 46.3652V46.7892H157.5Z" fill="white"/>
<path fill-rule="evenodd" clip-rule="evenodd" d="M168.93 46.9783H172.738V42.8633H175.657V53.8063H172.738V49.5163H168.93V53.8063H166.012V42.8633H168.93V46.9783Z" fill="white"/>
<path fill-rule="evenodd" clip-rule="evenodd" d="M188.281 49.5608V47.0948C188.281 45.4748 187.741 45.2998 186.224 45.2998C184.706 45.2998 184.167 45.4608 184.167 47.0948V49.5608C184.167 51.1948 184.706 51.4148 186.224 51.4148C187.741 51.4148 188.281 51.1948 188.281 49.5608ZM181.16 49.8817V46.7897C181.16 43.4177 183.261 42.7617 186.224 42.7617C189.186 42.7617 191.287 43.4177 191.287 46.7897V49.8817C191.287 53.2527 189.186 53.9537 186.224 53.9537C183.261 53.9537 181.16 53.2527 181.16 49.8817Z" fill="white"/>
<path fill-rule="evenodd" clip-rule="evenodd" d="M203.619 49.5608V47.0948C203.619 45.4748 203.079 45.2998 201.562 45.2998C200.044 45.2998 199.505 45.4608 199.505 47.0948V49.5608C199.505 51.1948 200.044 51.4148 201.562 51.4148C203.079 51.4148 203.619 51.1948 203.619 49.5608ZM196.498 49.8817V46.7897C196.498 43.4177 198.599 42.7617 201.562 42.7617C204.524 42.7617 206.626 43.4177 206.626 46.7897V49.8817C206.626 53.2527 204.524 53.9537 201.562 53.9537C198.599 53.9537 196.498 53.2527 196.498 49.8817Z" fill="white"/>
<path fill-rule="evenodd" clip-rule="evenodd" d="M215.048 51.2683H219.615V53.8063H212.13V42.8633H215.048V51.2683Z" fill="white"/>
<path fill-rule="evenodd" clip-rule="evenodd" d="M160.892 22.4717L157.996 33.0117L167.378 26.9887" fill="#76BC21"/>
<path fill-rule="evenodd" clip-rule="evenodd" d="M172.106 0C163.018 0 155.956 5.152 155.956 15.05C155.956 24.948 163.018 30.041 172.106 30.041C175.756 30.041 179.078 29.217 181.749 27.592L178.327 25.396C176.506 26.221 174.391 26.644 172.106 26.644C165.073 26.644 159.608 22.703 159.608 15.044C159.608 7.384 165.073 3.396 172.106 3.396C179.137 3.396 184.603 7.384 184.603 15.044C184.603 18.487 183.491 21.172 181.636 23.093L182.698 26.957C186.123 24.468 188.255 20.485 188.255 15.05C188.255 5.152 181.192 0 172.106 0Z" fill="#76BC21"/>
<path fill-rule="evenodd" clip-rule="evenodd" d="M172.065 23.5468C167.367 23.5468 163.546 19.7258 163.546 15.0278C163.546 12.7718 164.435 10.7228 165.873 9.19681C165.8 9.56181 165.805 9.94781 165.959 10.3318C166.541 11.7878 166.323 11.0608 166.902 12.5168C167.482 13.9738 168.435 13.3178 169.097 13.4638C169.758 13.6088 170.11 13.9738 170.329 14.0458C170.547 14.1188 171.203 14.4098 171.292 15.1608C171.38 15.9118 171.129 15.8668 170.704 16.2308C170.277 16.5958 170.766 17.0318 170.704 17.6148C170.642 18.1978 171.566 17.8338 172.732 18.6348C173.897 19.4368 173.096 19.7278 172.877 20.1638C172.659 20.6018 172.149 20.3828 171.292 20.3828C170.434 20.3828 171.292 20.8928 171.292 20.8928C171.292 20.8928 171.64 21.3298 172.065 21.2568C172.49 21.1838 173.097 21.1108 173.531 20.9658C173.964 20.8188 174.553 20.4548 175.354 20.3098C176.155 20.1638 177.103 18.2708 178.049 17.6878C178.996 17.1058 178.486 16.5948 178.486 16.0128C178.486 15.4298 177.976 16.0128 177.466 16.0128C176.957 16.0128 176.665 15.9398 175.791 15.1608C174.917 14.3828 175.135 14.6288 174.383 14.1918C173.63 13.7538 172.805 13.8998 172.44 13.8998C172.076 13.8998 170.765 13.7538 169.818 13.0988C168.872 12.4428 168.216 11.9338 168.507 11.4968C168.798 11.0598 168.507 11.4968 169.097 11.4968C169.685 11.4968 170.449 11.3998 170.704 11.7148C170.795 11.8278 170.6 12.1938 170.704 12.2978C170.944 12.5378 171.805 12.5178 172.065 12.2978C172.221 12.1658 172.149 11.7878 172.222 11.4968C172.295 11.2048 172.149 10.7688 172.222 10.1118C172.295 9.45681 172.222 10.1118 172.444 9.82081C172.665 9.52881 173.315 9.45681 173.898 9.09281C174.48 8.72881 174.407 8.80181 174.335 8.29181C174.262 7.78081 174.335 7.78081 174.335 7.78081C174.335 7.78081 173.387 7.34481 173.098 7.27181C172.821 7.20181 172.48 6.58481 172.45 6.52881C176.968 6.73281 180.583 10.4608 180.583 15.0278C180.583 19.7258 176.762 23.5468 172.065 23.5468Z" fill="#76BC21"/>
</g>
</svg>
