<svg width="228" height="59" viewBox="0 0 228 59" fill="none" xmlns="http://www.w3.org/2000/svg">
<rect width="228" height="59" fill="black" fill-opacity="0"/>
<rect width="29" height="29" fill="black" fill-opacity="0" transform="translate(0 0.735001)"/>
<mask id="mask0" mask-type="alpha" maskUnits="userSpaceOnUse" x="0" y="1" width="29" height="29">
<path fill-rule="evenodd" clip-rule="evenodd" d="M0 1.1653H28.1216V29.1253H0V1.1653Z" fill="white"/>
</mask>
<g mask="url(#mask0)">
<path fill-rule="evenodd" clip-rule="evenodd" d="M19.6636 7.8983C18.8016 7.7373 17.8846 7.6303 16.3226 7.6303C11.3136 7.6303 9.3186 11.5083 9.3186 15.3873C9.3186 19.1583 11.0976 22.4983 16.3766 22.4983C20.8476 22.4983 22.5176 21.8513 25.4806 20.7743C27.6366 21.5833 28.1216 23.6843 28.1216 25.6763C24.5116 27.9393 19.6636 29.1253 15.1386 29.1253C7.8106 29.1253 -0.000396729 26.1623 -0.000396729 15.3873C-0.000396729 6.4983 7.1106 1.1653 16.6466 1.1653C20.0396 1.1653 23.6496 2.0813 26.9346 3.3743V12.1013C26.9346 12.8563 25.8586 13.4483 24.1346 13.4483C22.6266 13.4483 20.5256 13.0183 20.3096 11.7233L19.6636 7.8983Z" fill="white"/>
</g>
<path fill-rule="evenodd" clip-rule="evenodd" d="M49.938 15.1728C49.938 11.2938 47.945 7.6308 44.228 7.6308C40.51 7.6308 38.518 11.2938 38.518 15.1728C38.518 19.0518 40.51 22.6598 44.228 22.6598C47.945 22.6598 49.938 19.0518 49.938 15.1728ZM44.228 1.1648C52.685 1.1648 59.258 5.9608 59.258 15.1728C59.258 24.3848 52.685 29.1248 44.228 29.1248C35.77 29.1248 29.197 24.3848 29.197 15.1728C29.197 5.9608 35.77 1.1648 44.228 1.1648Z" fill="white"/>
<path fill-rule="evenodd" clip-rule="evenodd" d="M64.6431 8.3847L60.4951 7.7377C59.4181 7.5767 58.7181 6.1227 58.7181 4.5057C58.7181 2.9977 59.1471 1.6507 60.1181 1.6507H70.0301C73.2091 1.6507 73.8011 3.1587 73.8011 6.2827V17.7577C73.8011 19.9667 74.5011 22.1217 77.6801 22.1217C79.7811 22.1217 83.0131 21.2057 83.0131 16.7357V8.2227L79.5661 7.6307C78.4881 7.4687 78.0041 5.9057 78.0041 4.4517C78.0041 2.9977 78.3801 1.6507 79.2961 1.6507H95.4031C96.3731 1.6507 96.7491 2.9437 96.7491 4.3437C96.7491 5.8527 96.2661 7.4147 95.1871 7.6307L92.1711 8.2227V21.9057L96.3201 22.5517C97.3981 22.7137 98.0981 24.1687 98.0981 25.7847C98.0981 27.2927 97.6651 28.6397 96.6951 28.6397H87.3231C84.6841 28.6397 83.2831 27.8307 83.2831 25.2467C81.1821 27.8307 77.6801 29.1247 74.5551 29.1247C69.8681 29.1247 64.6431 27.8307 64.6431 18.9437V8.3847Z" fill="white"/>
<path fill-rule="evenodd" clip-rule="evenodd" d="M104.561 22.0683V8.3843L100.412 7.7373C99.3335 7.5773 98.6335 6.1233 98.6335 4.5063C98.6335 2.9983 99.0655 1.6503 100.033 1.6503H109.408C112.048 1.6503 113.449 2.6733 113.449 5.2603C115.711 2.6733 118.514 1.1653 122.285 1.1653C124.223 1.1653 124.655 1.2193 126.377 1.5963C126.756 2.4043 126.918 3.3743 126.918 4.3983C126.918 6.3363 126.218 8.5463 125.085 9.4613L120.29 8.3843C116.574 8.3843 113.719 8.8153 113.719 13.7723V22.0683L117.165 22.6603C118.244 22.8223 118.727 24.3843 118.727 25.8393C118.727 27.2933 118.352 28.6393 117.436 28.6393H101.328C100.357 28.6393 99.9825 27.3473 99.9825 25.9473C99.9825 24.4383 100.465 22.8763 101.544 22.6603L104.561 22.0683Z" fill="white"/>
<path fill-rule="evenodd" clip-rule="evenodd" d="M127.456 19.9667C127.456 19.2117 128.423 18.6187 130.148 18.6187C131.656 18.6187 133.597 19.1057 133.918 20.3437L134.619 23.0367C136.127 23.5227 137.852 23.8997 139.898 23.8997C143.185 23.8997 143.993 23.2517 143.993 22.4447C143.993 21.3147 143.131 20.6137 137.314 18.4047C130.418 15.8187 127.886 13.3397 127.886 9.2997C127.886 3.8587 133.489 1.1647 141.301 1.1647C145.61 1.1647 149.381 1.8117 152.775 2.9437V10.0547C152.775 10.8087 151.697 11.4017 149.973 11.4017C148.464 11.4017 146.634 10.9167 146.31 9.6767L145.61 6.9297C144.694 6.6597 143.347 6.3907 141.893 6.3907C138.606 6.3907 137.69 7.6307 137.69 8.4377C137.69 9.8937 138.768 10.2697 143.239 11.8317C151.481 14.7407 153.797 17.3267 153.797 21.2057C153.797 27.1307 147.765 29.1247 140.223 29.1247C134.457 29.1247 130.202 28.2087 127.456 26.9707V19.9667Z" fill="white"/>
<path fill-rule="evenodd" clip-rule="evenodd" d="M194.478 22.0683V8.3843L190.329 7.7373C189.25 7.5773 188.55 6.1233 188.55 4.5063C188.55 2.9983 188.982 1.6503 189.95 1.6503H199.324C201.965 1.6503 203.365 2.4043 203.365 4.9903C205.466 2.4043 208.969 1.1653 212.091 1.1653C216.778 1.1653 222.006 2.4593 222.006 11.3473V21.9063L226.152 22.5513C227.231 22.7143 227.931 24.1693 227.931 25.7853C227.931 27.2933 227.499 28.6393 226.531 28.6393H216.619C213.44 28.6393 212.845 27.1303 212.845 24.0053V12.5313C212.845 10.3233 212.145 8.1693 208.969 8.1693C206.866 8.1693 203.636 9.0313 203.636 13.5023V22.0683L207.082 22.6603C208.161 22.8223 208.645 24.3843 208.645 25.8393C208.645 27.2933 208.267 28.6393 207.353 28.6393H191.245C190.274 28.6393 189.899 27.3473 189.899 25.9473C189.899 24.4383 190.383 22.8763 191.461 22.6603L194.478 22.0683Z" fill="white"/>
<mask id="mask1" mask-type="alpha" maskUnits="userSpaceOnUse" x="0" y="0" width="228" height="59">
<path fill-rule="evenodd" clip-rule="evenodd" d="M0 58.735H227.931V0H0V58.735Z" fill="white"/>
</mask>
<g mask="url(#mask1)">
<path fill-rule="evenodd" clip-rule="evenodd" d="M0 58.735H227.931V36.932H0V58.735Z" fill="#76BC21"/>
<path fill-rule="evenodd" clip-rule="evenodd" d="M11.3662 51.2685H15.9332V53.8065H8.4482V42.8635H11.3662V51.2685Z" fill="white"/>
<path fill-rule="evenodd" clip-rule="evenodd" d="M25.7856 45.0517H25.7566L24.4286 49.8087H27.1276L25.7856 45.0517ZM23.8016 51.9247L23.2616 53.8067H20.2256L23.5096 42.8637H27.9456L31.2726 53.8067H28.2956L27.7266 51.9247H23.8016Z" fill="white"/>
<path fill-rule="evenodd" clip-rule="evenodd" d="M41.0659 42.8632L44.3059 51.2832L44.3199 51.2682L44.1449 42.8632H47.0639V53.8062H42.0869L38.8919 45.3732L38.8779 45.4022L39.0519 53.8062H36.1339V42.8632H41.0659Z" fill="white"/>
<path fill-rule="evenodd" clip-rule="evenodd" d="M59.5859 46.248C59.5859 45.329 58.5789 45.154 57.7039 45.154C55.6029 45.154 55.5149 45.811 55.5149 47.576V49.356C55.5149 51.297 56.1859 51.56 57.7039 51.56C59.1919 51.56 59.5859 51.225 59.5859 49.707H57.5719V47.679H62.5479V49.591C62.5479 53.282 61.6139 53.953 57.7039 53.953C54.2599 53.953 52.5089 53.31 52.5089 49.766V46.934C52.5089 43.315 54.4939 42.762 57.7039 42.762C60.5349 42.762 62.5479 43.271 62.5479 46.248H59.5859Z" fill="white"/>
<path fill-rule="evenodd" clip-rule="evenodd" d="M70.9707 42.8632V49.9682C70.9707 51.1802 71.5257 51.4142 72.7657 51.4142C74.0057 51.4142 74.5607 51.1802 74.5607 49.9682V42.8632H77.4787V50.1592C77.4787 52.8292 76.6467 53.9532 72.7657 53.9532C68.6797 53.9532 68.0527 52.7852 68.0527 50.1592V42.8632H70.9707Z" fill="white"/>
<path fill-rule="evenodd" clip-rule="evenodd" d="M87.958 45.0517H87.929L86.601 49.8087H89.3L87.958 45.0517ZM85.974 51.9247L85.434 53.8067H82.399L85.682 42.8637H90.118L93.444 53.8067H90.468L89.899 51.9247H85.974Z" fill="white"/>
<path fill-rule="evenodd" clip-rule="evenodd" d="M105.15 46.248C105.15 45.329 104.143 45.154 103.268 45.154C101.166 45.154 101.079 45.811 101.079 47.576V49.356C101.079 51.297 101.75 51.56 103.268 51.56C104.756 51.56 105.15 51.225 105.15 49.707H103.136V47.679H108.112V49.591C108.112 53.282 107.178 53.953 103.268 53.953C99.8244 53.953 98.0734 53.31 98.0734 49.766V46.934C98.0734 43.315 100.057 42.762 103.268 42.762C106.098 42.762 108.112 43.271 108.112 46.248H105.15Z" fill="white"/>
<path fill-rule="evenodd" clip-rule="evenodd" d="M116.535 47.2558H121.204V49.2828H116.535V51.4138H121.613V53.8068H113.617V42.8628H121.511V45.2558H116.535V47.2558Z" fill="white"/>
<path fill-rule="evenodd" clip-rule="evenodd" d="M142.557 46.2919C142.557 45.1829 142.06 45.1539 140.923 45.1539C139.347 45.1539 139.2 45.4889 139.2 46.1029C139.2 46.8759 139.536 46.9489 140.776 47.1969L143.578 47.7509C145.022 48.0279 145.664 48.8459 145.664 50.3049C145.664 53.3399 145.037 53.9529 140.923 53.9529C137.843 53.9529 136.282 53.5879 136.282 50.3049H139.083C139.083 51.4429 139.492 51.5599 140.923 51.5599C142.293 51.5599 142.746 51.4139 142.746 50.4939C142.746 50.0419 142.629 49.6049 141.418 49.4299L138.631 49.0209C137.435 48.8459 136.282 48.2329 136.282 46.1029C136.282 43.1109 138.062 42.7619 140.923 42.7619C143.783 42.7619 145.358 43.1979 145.358 45.8399V46.2919H142.557Z" fill="white"/>
<path fill-rule="evenodd" clip-rule="evenodd" d="M157.5 46.789V46.365C157.5 45.489 156.698 45.3 155.706 45.3C154.042 45.3 153.881 45.825 153.881 47.387V49.094C153.881 50.727 153.955 51.414 155.706 51.414C156.917 51.414 157.5 51.326 157.5 50.042V49.722H160.507V50.042C160.507 53.121 159.441 53.953 156.026 53.953C153.05 53.953 150.876 53.749 150.876 49.751V46.92C150.876 43.301 152.816 42.762 156.026 42.762C158.931 42.762 160.507 43.563 160.507 46.365V46.789H157.5Z" fill="white"/>
<path fill-rule="evenodd" clip-rule="evenodd" d="M168.93 46.9784H172.738V42.8634H175.657V53.8064H172.738V49.5164H168.93V53.8064H166.012V42.8634H168.93V46.9784Z" fill="white"/>
<path fill-rule="evenodd" clip-rule="evenodd" d="M188.281 49.5605V47.0945C188.281 45.4745 187.741 45.2995 186.224 45.2995C184.706 45.2995 184.167 45.4605 184.167 47.0945V49.5605C184.167 51.1945 184.706 51.4145 186.224 51.4145C187.741 51.4145 188.281 51.1945 188.281 49.5605ZM181.16 49.8815V46.7895C181.16 43.4175 183.261 42.7615 186.224 42.7615C189.186 42.7615 191.287 43.4175 191.287 46.7895V49.8815C191.287 53.2525 189.186 53.9535 186.224 53.9535C183.261 53.9535 181.16 53.2525 181.16 49.8815Z" fill="white"/>
<path fill-rule="evenodd" clip-rule="evenodd" d="M203.619 49.5605V47.0945C203.619 45.4745 203.079 45.2995 201.562 45.2995C200.044 45.2995 199.505 45.4605 199.505 47.0945V49.5605C199.505 51.1945 200.044 51.4145 201.562 51.4145C203.079 51.4145 203.619 51.1945 203.619 49.5605ZM196.498 49.8815V46.7895C196.498 43.4175 198.599 42.7615 201.562 42.7615C204.524 42.7615 206.626 43.4175 206.626 46.7895V49.8815C206.626 53.2525 204.524 53.9535 201.562 53.9535C198.599 53.9535 196.498 53.2525 196.498 49.8815Z" fill="white"/>
<path fill-rule="evenodd" clip-rule="evenodd" d="M215.048 51.2685H219.615V53.8065H212.13V42.8635H215.048V51.2685Z" fill="white"/>
<path fill-rule="evenodd" clip-rule="evenodd" d="M160.892 22.4716L157.996 33.0116L167.378 26.9886" fill="#76BC21"/>
<path fill-rule="evenodd" clip-rule="evenodd" d="M172.106 -9.91821e-05C163.018 -9.91821e-05 155.956 5.1519 155.956 15.0499C155.956 24.9479 163.018 30.0409 172.106 30.0409C175.756 30.0409 179.078 29.2169 181.749 27.5919L178.327 25.3959C176.506 26.2209 174.391 26.6439 172.106 26.6439C165.073 26.6439 159.608 22.7029 159.608 15.0439C159.608 7.3839 165.073 3.3959 172.106 3.3959C179.137 3.3959 184.603 7.3839 184.603 15.0439C184.603 18.4869 183.491 21.1719 181.636 23.0929L182.698 26.9569C186.123 24.4679 188.255 20.4849 188.255 15.0499C188.255 5.1519 181.192 -9.91821e-05 172.106 -9.91821e-05Z" fill="#76BC21"/>
<path fill-rule="evenodd" clip-rule="evenodd" d="M172.065 23.5468C167.367 23.5468 163.546 19.7258 163.546 15.0278C163.546 12.7718 164.435 10.7228 165.873 9.1968C165.8 9.5618 165.805 9.9478 165.959 10.3318C166.541 11.7878 166.323 11.0608 166.902 12.5168C167.482 13.9738 168.435 13.3178 169.097 13.4638C169.758 13.6088 170.11 13.9738 170.329 14.0458C170.547 14.1188 171.203 14.4098 171.292 15.1608C171.38 15.9118 171.129 15.8668 170.704 16.2308C170.277 16.5958 170.766 17.0318 170.704 17.6148C170.642 18.1978 171.566 17.8338 172.732 18.6348C173.897 19.4368 173.096 19.7278 172.877 20.1638C172.659 20.6018 172.149 20.3828 171.292 20.3828C170.434 20.3828 171.292 20.8928 171.292 20.8928C171.292 20.8928 171.64 21.3298 172.065 21.2568C172.49 21.1838 173.097 21.1108 173.531 20.9658C173.964 20.8188 174.553 20.4548 175.354 20.3098C176.155 20.1638 177.103 18.2708 178.049 17.6878C178.996 17.1058 178.486 16.5948 178.486 16.0128C178.486 15.4298 177.976 16.0128 177.466 16.0128C176.957 16.0128 176.665 15.9398 175.791 15.1608C174.917 14.3828 175.135 14.6288 174.383 14.1918C173.63 13.7538 172.805 13.8998 172.44 13.8998C172.076 13.8998 170.765 13.7538 169.818 13.0988C168.872 12.4428 168.216 11.9338 168.507 11.4968C168.798 11.0598 168.507 11.4968 169.097 11.4968C169.685 11.4968 170.449 11.3998 170.704 11.7148C170.795 11.8278 170.6 12.1938 170.704 12.2978C170.944 12.5378 171.805 12.5178 172.065 12.2978C172.221 12.1658 172.149 11.7878 172.222 11.4968C172.295 11.2048 172.149 10.7688 172.222 10.1118C172.295 9.4568 172.222 10.1118 172.444 9.8208C172.665 9.5288 173.315 9.4568 173.898 9.0928C174.48 8.7288 174.407 8.8018 174.335 8.2918C174.262 7.7808 174.335 7.7808 174.335 7.7808C174.335 7.7808 173.387 7.3448 173.098 7.2718C172.821 7.2018 172.48 6.5848 172.45 6.5288C176.968 6.7328 180.583 10.4608 180.583 15.0278C180.583 19.7258 176.762 23.5468 172.065 23.5468Z" fill="#76BC21"/>
</g>
</svg>
