<svg width="24" height="24" viewBox="0 0 24 24" fill="none" xmlns="http://www.w3.org/2000/svg">
<path fill-rule="evenodd" clip-rule="evenodd" d="M5.95459 0H15.623C18.9066 0 21.578 2.65552 21.5779 5.91943V15.5305C21.5779 18.7944 18.9066 21.45 15.623 21.45H5.95459C2.67126 21.45 0 18.7947 0 15.5305V5.91943C0 2.65552 2.67126 0 5.95459 0ZM15.6233 19.5469C17.8511 19.5469 19.6636 17.7451 19.6636 15.5305L19.6635 5.91943C19.6635 3.70483 17.851 1.90308 15.6232 1.90308H5.95459C3.72693 1.90308 1.91455 3.70483 1.91455 5.91943V15.5305C1.91455 17.7451 3.72693 19.5469 5.95459 19.5469H15.6233Z" transform="translate(0.827271 0.774902)" fill="#D5D5D5"/>
<path fill-rule="evenodd" clip-rule="evenodd" d="M0 5.8501C0 2.62427 2.63989 0 5.88489 0C9.12988 0 11.7698 2.62427 11.7698 5.8501C11.7698 9.07593 9.12988 11.7 5.88489 11.7C2.63989 11.7 0 9.07593 0 5.8501ZM2.02637 5.84985C2.02637 7.96484 3.75745 9.6853 5.88489 9.6853C8.01245 9.6853 9.74341 7.96484 9.74341 5.84985C9.74341 3.73486 8.01257 2.01416 5.88489 2.01416C3.7572 2.01416 2.02637 3.73486 2.02637 5.84985Z" transform="translate(5.73132 5.6499)" fill="#D5D5D5"/>
<path d="M0.980814 0C0.723127 0 0.469988 0.103705 0.288003 0.285409C0.105125 0.466227 0 0.717955 0 0.975C0 1.23125 0.105215 1.48289 0.288003 1.66459C0.469899 1.84541 0.723127 1.95 0.980814 1.95C1.23939 1.95 1.49173 1.84541 1.67452 1.66459C1.8573 1.48289 1.96163 1.23116 1.96163 0.975C1.96163 0.717955 1.8573 0.466227 1.67452 0.285409C1.49262 0.103705 1.23939 0 0.980814 0Z" transform="translate(16.5203 4.6748)" fill="#D5D5D5"/>
</svg>
