<svg width="1277" height="437" viewBox="0 0 1277 437" fill="none" xmlns="http://www.w3.org/2000/svg">
<rect width="1274.97" height="434.717" fill="black" fill-opacity="0" transform="translate(1 1)"/>
<path d="M1 435.717L258.61 1L1 435.717Z" fill="#B20838"/>
<path d="M1 435.717L258.61 1" stroke="#26FBCB" stroke-width="2"/>
<path d="M28.1698 435.717L285.78 1L28.1698 435.717Z" fill="#B20838"/>
<path d="M28.1698 435.717L285.78 1" stroke="#26FBCB" stroke-width="2"/>
<path d="M56.3459 435.717L313.956 1L56.3459 435.717Z" fill="#B20838"/>
<path d="M56.3459 435.717L313.956 1" stroke="#26FBCB" stroke-width="2"/>
<path d="M83.5157 435.717L341.126 1L83.5157 435.717Z" fill="#B20838"/>
<path d="M83.5157 435.717L341.126 1" stroke="#26FBCB" stroke-width="2"/>
<path d="M110.686 435.717L368.296 1L110.686 435.717Z" fill="#B20838"/>
<path d="M110.686 435.717L368.296 1" stroke="#26FBCB" stroke-width="2"/>
<path d="M138.862 435.717L396.472 1L138.862 435.717Z" fill="#B20838"/>
<path d="M138.862 435.717L396.472 1" stroke="#26FBCB" stroke-width="2"/>
<path d="M166.031 435.717L423.642 1L166.031 435.717Z" fill="#B20838"/>
<path d="M166.031 435.717L423.642 1" stroke="#26FBCB" stroke-width="2"/>
<path d="M193.201 435.717L450.811 1L193.201 435.717Z" fill="#B20838"/>
<path d="M193.201 435.717L450.811 1" stroke="#26FBCB" stroke-width="2"/>
<path d="M221.377 435.717L478.987 1L221.377 435.717Z" fill="#B20838"/>
<path d="M221.377 435.717L478.987 1" stroke="#26FBCB" stroke-width="2"/>
<path d="M248.547 435.717L506.157 1L248.547 435.717Z" fill="#B20838"/>
<path d="M248.547 435.717L506.157 1" stroke="#26FBCB" stroke-width="2"/>
<path d="M275.717 435.717L533.327 1L275.717 435.717Z" fill="#B20838"/>
<path d="M275.717 435.717L533.327 1" stroke="#26FBCB" stroke-width="2"/>
<path d="M303.893 435.717L561.503 1L303.893 435.717Z" fill="#B20838"/>
<path d="M303.893 435.717L561.503 1" stroke="#26FBCB" stroke-width="2"/>
<path d="M331.063 435.717L588.673 1L331.063 435.717Z" fill="#B20838"/>
<path d="M331.063 435.717L588.673 1" stroke="#26FBCB" stroke-width="2"/>
<path d="M358.233 435.717L615.843 1L358.233 435.717Z" fill="#B20838"/>
<path d="M358.233 435.717L615.843 1" stroke="#26FBCB" stroke-width="2"/>
<path d="M386.409 435.717L644.019 1L386.409 435.717Z" fill="#B20838"/>
<path d="M386.409 435.717L644.019 1" stroke="#26FBCB" stroke-width="2"/>
<path d="M413.579 435.717L671.189 1L413.579 435.717Z" fill="#B20838"/>
<path d="M413.579 435.717L671.189 1" stroke="#26FBCB" stroke-width="2"/>
<path d="M440.748 435.717L698.359 1L440.748 435.717Z" fill="#B20838"/>
<path d="M440.748 435.717L698.359 1" stroke="#26FBCB" stroke-width="2"/>
<path d="M468.925 435.717L726.535 1L468.925 435.717Z" fill="#B20838"/>
<path d="M468.925 435.717L726.535 1" stroke="#26FBCB" stroke-width="2"/>
<path d="M496.094 435.717L753.704 1L496.094 435.717Z" fill="#B20838"/>
<path d="M496.094 435.717L753.704 1" stroke="#26FBCB" stroke-width="2"/>
<path d="M523.264 435.717L780.874 1L523.264 435.717Z" fill="#B20838"/>
<path d="M523.264 435.717L780.874 1" stroke="#26FBCB" stroke-width="2"/>
<path d="M551.44 435.717L809.05 1L551.44 435.717Z" fill="#B20838"/>
<path d="M551.44 435.717L809.05 1" stroke="#26FBCB" stroke-width="2"/>
<path d="M578.61 435.717L836.22 1L578.61 435.717Z" fill="#B20838"/>
<path d="M578.61 435.717L836.22 1" stroke="#26FBCB" stroke-width="2"/>
<path d="M605.78 435.717L863.39 1L605.78 435.717Z" fill="#B20838"/>
<path d="M605.78 435.717L863.39 1" stroke="#26FBCB" stroke-width="2"/>
<path d="M633.956 435.717L891.566 1L633.956 435.717Z" fill="#B20838"/>
<path d="M633.956 435.717L891.566 1" stroke="#26FBCB" stroke-width="2"/>
<path d="M661.126 435.717L918.736 1L661.126 435.717Z" fill="#B20838"/>
<path d="M661.126 435.717L918.736 1" stroke="#26FBCB" stroke-width="2"/>
<path d="M688.296 435.717L945.906 1L688.296 435.717Z" fill="#B20838"/>
<path d="M688.296 435.717L945.906 1" stroke="#26FBCB" stroke-width="2"/>
<path d="M716.472 435.717L974.082 1L716.472 435.717Z" fill="#B20838"/>
<path d="M716.472 435.717L974.082 1" stroke="#26FBCB" stroke-width="2"/>
<path d="M743.642 435.717L1001.25 1L743.642 435.717Z" fill="#B20838"/>
<path d="M743.642 435.717L1001.25 1" stroke="#26FBCB" stroke-width="2"/>
<path d="M770.811 435.717L1028.42 1L770.811 435.717Z" fill="#B20838"/>
<path d="M770.811 435.717L1028.42 1" stroke="#26FBCB" stroke-width="2"/>
<path d="M797.981 435.717L1055.59 1L797.981 435.717Z" fill="#B20838"/>
<path d="M797.981 435.717L1055.59 1" stroke="#26FBCB" stroke-width="2"/>
<path d="M826.157 435.717L1083.77 1L826.157 435.717Z" fill="#B20838"/>
<path d="M826.157 435.717L1083.77 1" stroke="#26FBCB" stroke-width="2"/>
<path d="M853.327 435.717L1110.94 1L853.327 435.717Z" fill="#B20838"/>
<path d="M853.327 435.717L1110.94 1" stroke="#26FBCB" stroke-width="2"/>
<path d="M880.497 435.717L1138.11 1L880.497 435.717Z" fill="#B20838"/>
<path d="M880.497 435.717L1138.11 1" stroke="#26FBCB" stroke-width="2"/>
<path d="M908.673 435.717L1166.28 1L908.673 435.717Z" fill="#B20838"/>
<path d="M908.673 435.717L1166.28 1" stroke="#26FBCB" stroke-width="2"/>
<path d="M935.843 435.717L1193.45 1L935.843 435.717Z" fill="#B20838"/>
<path d="M935.843 435.717L1193.45 1" stroke="#26FBCB" stroke-width="2"/>
<path d="M963.013 435.717L1220.62 1L963.013 435.717Z" fill="#B20838"/>
<path d="M963.013 435.717L1220.62 1" stroke="#26FBCB" stroke-width="2"/>
<path d="M991.189 435.717L1248.8 1L991.189 435.717Z" fill="#B20838"/>
<path d="M991.189 435.717L1248.8 1" stroke="#26FBCB" stroke-width="2"/>
<path d="M1018.36 435.717L1275.97 1L1018.36 435.717Z" fill="#B20838"/>
<path d="M1018.36 435.717L1275.97 1" stroke="#26FBCB" stroke-width="2"/>
</svg>
