<svg width="32" height="32" viewBox="0 0 32 32" fill="none" xmlns="http://www.w3.org/2000/svg">
<rect width="32" height="32" fill="black" fill-opacity="0"/>
<path opacity="0.101953" fill-rule="evenodd" clip-rule="evenodd" d="M16 32C24.8366 32 32 24.8366 32 16C32 7.16344 24.8366 0 16 0C7.16344 0 0 7.16344 0 16C0 24.8366 7.16344 32 16 32Z" fill="url(#paint0_linear)"/>
<path fill-rule="evenodd" clip-rule="evenodd" d="M16 24C20.4183 24 24 20.4183 24 16C24 11.5817 20.4183 8 16 8C11.5817 8 8 11.5817 8 16C8 20.4183 11.5817 24 16 24Z" fill="url(#paint1_linear)"/>
<defs>
<linearGradient id="paint0_linear" x1="-16" y1="16" x2="16" y2="48" gradientUnits="userSpaceOnUse">
<stop stop-color="#000BE1"/>
<stop offset="1" stop-color="#9700FF"/>
</linearGradient>
<linearGradient id="paint1_linear" x1="0" y1="16" x2="16" y2="32" gradientUnits="userSpaceOnUse">
<stop stop-color="#000BE1"/>
<stop offset="1" stop-color="#9700FF"/>
</linearGradient>
</defs>
</svg>
