<svg width="32" height="44" viewBox="0 0 32 44" fill="none" xmlns="http://www.w3.org/2000/svg">
<path fill-rule="evenodd" clip-rule="evenodd" d="M0 15.9023C0 7.10449 7.14801 0 16 0C24.852 0 32 7.11523 32 15.9126C32 19.0337 31.0248 21.9092 29.6423 24.3164L19.215 42.2427C18.497 43.4141 17.2432 44 16 44C14.7568 44 13.4387 43.4141 12.785 42.2427L2.35767 24.3062C0.985962 21.8989 0 18.9697 0 15.9023ZM10 15C10 18.3027 12.6973 21 16 21C19.3027 21 22 18.314 22 15C22 11.6973 19.3027 9 16 9C12.6973 9 10 11.6973 10 15Z" fill="#3408D5"/>
</svg>
