<svg width="26" height="15" viewBox="0 0 26 15" fill="none" xmlns="http://www.w3.org/2000/svg">
<path d="M21.3273 8.864C22.1493 9.66179 23.0169 10.4124 23.7542 11.2906C24.0799 11.6809 24.3882 12.0837 24.6241 12.5366C24.9583 13.1804 24.6556 13.8889 24.0748 13.9274L20.4647 13.9258C19.5336 14.0026 18.7908 13.6299 18.1662 12.9971C17.6664 12.491 17.2035 11.9524 16.7229 11.4292C16.5259 11.2154 16.3197 11.0142 16.0733 10.8551C15.5804 10.5371 15.1527 10.6345 14.871 11.1454C14.5842 11.6651 14.5191 12.2406 14.491 12.8198C14.4523 13.6648 14.1953 13.887 13.3414 13.9257C11.5165 14.0112 9.78455 13.7368 8.17562 12.8216C6.75714 12.0149 5.65717 10.8759 4.69976 9.58652C2.83567 7.07579 1.40815 4.31691 0.125151 1.48073C-0.163642 0.841739 0.0475585 0.49873 0.7568 0.48659C1.93453 0.463847 3.11209 0.465466 4.2912 0.484971C4.76987 0.491932 5.08675 0.764849 5.27157 1.21437C5.90876 2.77183 6.68842 4.25362 7.66708 5.62711C7.9277 5.99278 8.19346 6.35845 8.57189 6.61583C8.99055 6.9008 9.3093 6.80635 9.50626 6.34275C9.63124 6.04879 9.68595 5.73216 9.71412 5.41732C9.80743 4.33415 9.81972 3.25284 9.65607 2.17347C9.5556 1.49983 9.1739 1.06375 8.49772 0.936273C8.15266 0.871281 8.20404 0.743644 8.37111 0.547859C8.66129 0.210192 8.93421 0 9.47825 0H13.5582C14.2006 0.126018 14.3432 0.412857 14.4311 1.05533L14.4346 5.5605C14.4276 5.80921 14.5596 6.54727 15.0103 6.7119C15.371 6.82909 15.6087 6.54226 15.8251 6.3149C16.802 5.28426 17.4992 4.06625 18.122 2.80501C18.3984 2.25044 18.6361 1.67449 18.8664 1.09904C19.0371 0.672015 19.3049 0.461904 19.7888 0.471212L23.7155 0.474692C23.8319 0.474692 23.9498 0.476392 24.0625 0.495574C24.7242 0.607671 24.9055 0.890625 24.7012 1.53294C24.3792 2.54068 23.7526 3.38047 23.14 4.22415C22.4852 5.1249 21.7848 5.9948 21.1354 6.90088C20.5388 7.7283 20.5862 8.14536 21.3273 8.864V8.864Z" transform="translate(0.865723 0.675049)" fill="#D5D5D5"/>
</svg>
